<svg class="hidden-xs logo-white" xmlns="http://www.w3.org/2000/svg" width="133" height="37.534" viewBox="0 0 133 37.534">
  <g id="Group_6895" data-name="Group 6895" transform="translate(-39.096 -6.571)">
    <g id="Group_6894" data-name="Group 6894" transform="translate(39.096 6.571)">
      <path id="Path_2643" data-name="Path 2643" d="M50.663,21.7c-.282.018-.559.034-.841.034-.321,0-.632-.026-.958-.034l.937-2.261.861,2.261M51.7,24.265c.167-.008.423-.052.679-.052s.58.044.718.052c-.415-.888-1.018-2.276-1.371-3.08-.329-.77-.88-2.06-1.321-3.313a1.051,1.051,0,0,1-.292.047,1.068,1.068,0,0,1-.305-.047A41.54,41.54,0,0,1,48.131,21.9l-1.065,2.368a3.007,3.007,0,0,1,.412-.052,3.517,3.517,0,0,1,.444.052,19.93,19.93,0,0,1,.731-1.994c.365-.018.736-.037,1.107-.037.392,0,.775.018,1.172.037l.386.976Z" transform="translate(-26.26 11.629)" fill="#fff" fill-rule="evenodd"></path>
      <path id="Path_2644" data-name="Path 2644" d="M49.747,20.024c0,1.574,0,3.091-.1,4.182.2-.008.462-.052.66-.052s.431.044.64.052c-.068-.739-.091-1.733-.091-3.107a30.086,30.086,0,0,1,.1-3.19,6.538,6.538,0,0,1-.653.05c-.133,0-.478-.031-.653-.05a18.955,18.955,0,0,1,.091,2.115" transform="translate(-22.102 11.689)" fill="#fff"></path>
      <path id="Path_2645" data-name="Path 2645" d="M53.455,21.081a1.731,1.731,0,0,0,1.6-1.7,1.432,1.432,0,0,0-.42-1.026,1.875,1.875,0,0,0-1.444-.449c-.214,0-1.279.042-1.514.042a9.061,9.061,0,0,1-.922-.042c.068,1.185.068,1.31.068,2.517,0,1.767-.01,1.968-.086,3.78a5.073,5.073,0,0,1,.637-.052c.23,0,.431.037.616.052,0-.24-.037-1.423-.037-1.689V21.209h.217c.5.7,1.068,1.512,1.535,2.235.138.214.345.553.48.762a4.129,4.129,0,0,1,.744-.052,7.211,7.211,0,0,1,.817.052c-.577-.723-.828-1.047-1.553-2.062-.141-.2-.339-.5-.48-.689l-.258-.373m-1.5-2.681c.136-.013.475-.042.647-.042a1.364,1.364,0,0,1,.854.227,1.059,1.059,0,0,1,.389.953,1.188,1.188,0,0,1-1.258,1.271c-.238,0-.457-.018-.632-.029Z" transform="translate(-20.348 11.689)" fill="#fff" fill-rule="evenodd"></path>
      <path id="Path_2646" data-name="Path 2646" d="M55.261,22.055c-.431-1.274-1.031-3.065-1.316-4.146a4.573,4.573,0,0,1-.64.05c-.222,0-.535-.031-.718-.05.373.992.7,1.867.945,2.569.426,1.193.7,2.023,1.034,3.031l.227.7a2.188,2.188,0,0,1,.376-.052,1.36,1.36,0,0,1,.35.052c.144-.478.319-1.06.449-1.446.358-1.044.4-1.185.875-2.49l.274-.768c.1.295.277.768.376,1.055s.572,1.692.679,2.008c.154.415.18.527.522,1.642a3.606,3.606,0,0,1,.4-.052,1.841,1.841,0,0,1,.365.052c.35-1.091.384-1.2.9-2.676.509-1.431.822-2.245,1.371-3.621a1.779,1.779,0,0,1-.41.05,1.921,1.921,0,0,1-.426-.05c-.332,1.188-.5,1.767-.757,2.558-.431,1.282-.491,1.436-.752,2.133-.3-.788-.582-1.592-.846-2.4-.154-.441-.71-2.274-.715-2.292a1.954,1.954,0,0,1-.41.05,2.279,2.279,0,0,1-.4-.05c-.277,1.115-1.248,3.819-1.344,4.067l-.227.6-.175-.519" transform="translate(-17.367 11.689)" fill="#fff"></path>
      <path id="Path_2647" data-name="Path 2647" d="M59.381,21.7c-.287.018-.556.034-.843.034-.324,0-.637-.026-.958-.034l.94-2.261.861,2.261m1.039,2.561c.164-.008.426-.052.676-.052s.585.044.718.052c-.41-.888-1.021-2.276-1.371-3.08-.332-.77-.88-2.06-1.324-3.313a1,1,0,0,1-.287.047,1.04,1.04,0,0,1-.305-.047c-.225.754-.757,1.947-1.681,4.025l-1.062,2.368a3.02,3.02,0,0,1,.41-.052,3.576,3.576,0,0,1,.444.052,20.018,20.018,0,0,1,.734-1.994c.363-.018.731-.037,1.1-.037.394,0,.775.018,1.17.037l.392.976Z" transform="translate(-12.219 11.629)" fill="#fff" fill-rule="evenodd"></path>
      <path id="Path_2648" data-name="Path 2648" d="M61.137,21.744a.7.7,0,0,1,.115-.29c.392-.663.749-1.355,1.156-2.021.141-.214.812-1.282.953-1.525a1.2,1.2,0,0,1-.384.05,3.383,3.383,0,0,1-.54-.05,26.167,26.167,0,0,1-1.585,3.1c-.786-1.365-1.133-2.091-1.605-3.1a5,5,0,0,1-.754.05c-.2,0-.412-.018-.76-.05.48.794,1.263,2.065,1.736,2.872l.54.935c0,.572-.029,1.775-.055,2.49.172-.016.426-.052.608-.052.211,0,.426.037.637.052-.034-.851-.063-1.35-.063-2.125v-.337" transform="translate(-9.08 11.689)" fill="#fff"></path>
      <path id="Path_2649" data-name="Path 2649" d="M60.226,22.88a3.441,3.441,0,0,1-.217,1.036,3.78,3.78,0,0,0,1.726.473,2.056,2.056,0,0,0,2.326-2.015,1.839,1.839,0,0,0-.444-1.214,2.981,2.981,0,0,0-1.256-.671c-.8-.311-1.271-.5-1.271-1.164a.97.97,0,0,1,1.078-.992,1.142,1.142,0,0,1,1.2.8H63.5a4.76,4.76,0,0,1,.287-.869,3.287,3.287,0,0,0-1.525-.381c-1.666,0-2.143,1.034-2.143,1.84a1.59,1.59,0,0,0,1.159,1.629c.253.1.689.277.948.381a1.138,1.138,0,0,1-.449,2.206c-.54,0-1-.141-1.431-1.055h-.123" transform="translate(-5.415 11.639)" fill="#fff"></path>
      <path id="Path_2650" data-name="Path 2650" d="M42.873,19.6c0-6.944,3.72-8.813,6.534-8.813,4.516,0,6.474,3.746,6.474,7.74A11.145,11.145,0,0,1,54.475,24.7a6.018,6.018,0,0,1-5.038,2.778c-5.1,0-6.563-4.85-6.563-7.884M56.6,33.794a20.276,20.276,0,0,1,3.062-1.715L53.43,28.218c3.83-1.347,6.229-4.764,6.229-9.416,0-6.615-5.044-9.427-10.2-9.427-5.568,0-10.366,3.086-10.366,10.079a9.392,9.392,0,0,0,2.65,6.649,10.036,10.036,0,0,0,7.633,2.778c.3,0,.606,0,.908-.026Z" transform="translate(-39.096 -2.055)" fill="#fff" fill-rule="evenodd"></path>
      <path id="Path_2651" data-name="Path 2651" d="M58.564,20.845c-.861.057-1.684.11-2.537.11-.966,0-1.9-.078-2.861-.11l2.8-6.777,2.595,6.777m3.112,7.691c.491-.029,1.269-.167,2.034-.167s1.744.138,2.151.167c-1.235-2.676-3.054-6.834-4.1-9.236-.995-2.313-2.65-6.171-3.968-9.946a2.914,2.914,0,0,1-1.791,0c-.663,2.263-2.266,5.842-5.046,12.071l-3.2,7.111A7.929,7.929,0,0,1,49,28.368a9.228,9.228,0,0,1,1.326.167,59.114,59.114,0,0,1,2.2-5.981c1.1-.057,2.209-.11,3.3-.11,1.185,0,2.344.052,3.527.11l1.159,2.921Z" transform="translate(-25.144 -2.091)" fill="#fff" fill-rule="evenodd"></path>
      <path id="Path_2652" data-name="Path 2652" d="M63.438,14.393c0-1.047.031-2.094.06-3.088,1.9,0,3.848.026,5.477.2a5.076,5.076,0,0,1-.138-.992,6.709,6.709,0,0,1,.138-1.049c-2.647.138-5.07.167-7.362.167-2.115,0-5.171-.029-7.357-.167A4.125,4.125,0,0,1,54.4,10.48a4.175,4.175,0,0,1-.138,1.021c1.407-.138,4.057-.2,4.307-.2h1.371c.034,1.078.06,2.041.06,3.06l.026,7.688c0,2.094-.167,4.221-.279,6.312a18.156,18.156,0,0,1,1.872-.167c.332,0,1.222.081,2.023.167a28.169,28.169,0,0,1-.2-3.775v-10.2" transform="translate(-14.679 -1.92)" fill="#fff"></path>
      <path id="Path_2653" data-name="Path 2653" d="M70.312,20.845c-.854.057-1.679.11-2.532.11-.968,0-1.9-.078-2.869-.11l2.806-6.777,2.595,6.777m3.112,7.691c.5-.029,1.271-.167,2.047-.167s1.733.138,2.143.167c-1.235-2.676-3.06-6.834-4.1-9.236-.992-2.313-2.65-6.171-3.965-9.946a3.162,3.162,0,0,1-.885.141,3.275,3.275,0,0,1-.916-.141c-.653,2.263-2.256,5.842-5.036,12.071l-3.2,7.111a7.981,7.981,0,0,1,1.235-.167,9.1,9.1,0,0,1,1.324.167,61.855,61.855,0,0,1,2.206-5.981c1.1-.057,2.206-.11,3.31-.11,1.185,0,2.344.052,3.529.11l1.156,2.921Z" transform="translate(-6.215 -2.091)" fill="#fff" fill-rule="evenodd"></path>
      <path id="Path_2654" data-name="Path 2654" d="M75.727,18.993c2.511-.465,4.793-2.039,4.793-5.1a4.272,4.272,0,0,0-1.263-3.086c-1.183-1.133-2.535-1.352-4.32-1.352-.642,0-3.832.138-4.555.138a26.024,26.024,0,0,1-2.754-.138c.193,3.556.193,3.942.193,7.552,0,5.315-.029,5.921-.245,11.353a13.678,13.678,0,0,1,1.9-.167,17.031,17.031,0,0,1,1.846.167c0-.715-.112-4.271-.112-5.072V19.376h.663c1.488,2.1,3.2,4.527,4.605,6.7.412.634,1.021,1.658,1.431,2.292a13.023,13.023,0,0,1,2.232-.167,19.968,19.968,0,0,1,2.454.167c-1.741-2.18-2.483-3.14-4.66-6.2-.41-.577-1.021-1.488-1.428-2.065l-.778-1.1m-4.519-8.046c.418-.023,1.438-.136,1.961-.136a4.162,4.162,0,0,1,2.558.689,3.185,3.185,0,0,1,1.162,2.864,3.562,3.562,0,0,1-3.783,3.8c-.713,0-1.376-.055-1.9-.078Z" transform="translate(6.769 -1.92)" fill="#fff" fill-rule="evenodd"></path>
      <path id="Path_2655" data-name="Path 2655" d="M64.491,23.214H63.368s-.159-.7.251-.966a7.792,7.792,0,0,1,.872-.473v1.438M69.874,20.6a8.549,8.549,0,0,0-1.133.786c-.426.386.1.53.1.53v1.295H65.553V18.679s-1.2,1.1-1.316,1.25.287.295.287.295l-.068.426A12.075,12.075,0,0,0,63.4,21.3c-.572.381-1,.877-1,1.219s-.149,1.689-.149,1.689h7.623Zm-6.8-1.655c.373,0,.637-.154.637-.449s-.175-.5-.637-.5c-.418,0-.533.172-.533.5S62.687,18.948,63.071,18.948Zm1.394,0c.384,0,.637-.154.637-.449s-.177-.5-.637-.5c-.41,0-.522.172-.522.5S64.089,18.948,64.465,18.948Zm2.125,5.647c-.407,0-.522.175-.522.506s.141.449.522.449.645-.149.645-.449S67.062,24.595,66.59,24.595Zm1.457,0c-.412,0-.525.175-.525.506s.149.449.525.449.645-.149.645-.449S68.514,24.595,68.046,24.595Zm16.42-5.738c.373,0,.645-.149.645-.444s-.175-.5-.645-.5c-.407,0-.522.172-.522.5S84.091,18.857,84.467,18.857Zm1.454,0c.376,0,.637-.149.637-.444s-.175-.5-.637-.5c-.41,0-.522.172-.522.5S85.54,18.857,85.921,18.857Zm4.015.123c-.2.178-.146.392.115.358v4.874h1.081V18.149S90.139,18.8,89.936,18.979ZM85.6,21.715h-.7c0-.389.7-.6.7-.6Zm-4.6.8c0,.175-.008.462-.018.7h-6.1v-1.07c.157-.412.428-.465.846-.465h4.459C81.146,21.679,81,22.185,81,22.517Zm7.135-3.18v3.877H86.678V19.692s-.295.115-.694.295-1.874.775-1.874,1.579v.924H85.6v.723H82.073c0-.17.008-.418.008-.788a1.8,1.8,0,0,0-1.864-1.78h-4.08a1.7,1.7,0,0,0-1.253.363V18.032s-.634.444-1.1.8,0,.593,0,.593v3.791H72.445l-.029-3.25-1.2.88c-.264.209-.115.392.172.392,0,0-.052,2.4-.052,2.971a1.014,1.014,0,0,1-1.465.924s-.313.063-.052.3a1.447,1.447,0,0,0,.924.412,1.621,1.621,0,0,0,1.639-1.639H89.2V18.141s-.984.653-1.193.833S87.871,19.366,88.135,19.337Z" transform="translate(-1.804 11.689)" fill="#fff"></path>
      <g id="Group_6893" data-name="Group 6893" transform="translate(92.552)">
        <path id="Path_2656" data-name="Path 2656" d="M90.63,28.957a9,9,0,0,1-2.412.5,4.838,4.838,0,0,0-2.457.812c1.856-.037,3.817-.073,5.759-.117-.141-.2-.551-.8-.551-.8a2.632,2.632,0,0,0-.313-.4l-.026.008M79.462,15.21c2.42,0,6.866-.057,11.254-.157.509-.4,1.021-.8,1.561-1.206-4.869-.128-10.113-.2-12.815-.2-1.133,0-2.055.355-2.055.783s.922.783,2.055.783m.7-3.785c0,.339.723.619,1.611.619,2.762,0,8.886-.1,13.358-.253.339-.232.668-.47.992-.694-4.506-.175-11.379-.29-14.35-.29-.888,0-1.611.277-1.611.619m19.856,8.547a11.51,11.51,0,0,0,1.827.859,15.859,15.859,0,0,0,3.853-.392c0-.167-2.329-.332-5.681-.467m-21.939-1.66c2.041,0,5.386-.039,9.025-.1.525-.5,1.089-1.008,1.684-1.525-4.279-.089-8.354-.141-10.708-.141-1.29,0-2.323.4-2.323.888s1.034.882,2.323.882m23.263-4.122c-.358.18-.689.363-1.029.54a10.631,10.631,0,0,0,2.822-.3,5.753,5.753,0,0,0-1.793-.238M85.44,9.467c2.621,0,10.591-.2,10.591-.436s-7.978-.439-10.591-.439c-.509,0-.927.2-.927.439s.418.436.927.436M102.6,17.353a1.636,1.636,0,0,1-.159.365,7.823,7.823,0,0,0,2.344-.29,6.766,6.766,0,0,0-2.128-.279ZM92.695,31.881c-4.984-.131-10.455-.2-13.233-.2-1.133,0-2.055.347-2.055.783s.922.781,2.055.781c2.926,0,8.831-.086,14.026-.232-.271-.365-.53-.749-.794-1.128M95.047,35.1c-4.461-.154-10.534-.251-13.277-.251-.888,0-1.611.274-1.611.613s.723.616,1.611.616c2.877,0,9.408-.1,13.914-.271-.211-.227-.42-.467-.637-.707M84.513,37.856c0,.24.418.441.927.441,2.613,0,10.591-.2,10.591-.441s-7.97-.439-10.591-.439c-.509,0-.927.2-.927.439M79.8,27.372a1.74,1.74,0,0,1,.337-.728c-.023.039-.042.068-.01.013.178-.3.42-.689.707-1.13-1.376-.013-2.577-.026-3.529-.026-1.357,0-2.464.426-2.464.942s1.107.945,2.464.945c.707,0,1.543-.005,2.5-.016m2.018,2.945c-.339-.321-1.454-1.608-1.592-1.736-.82-.005-1.551-.005-2.154-.005-1.29,0-2.323.392-2.323.885s1.034.882,2.323.882c.984,0,2.266-.01,3.746-.026m-.172-5.952q.6-.834,1.412-1.827c-2.415-.037-4.524-.052-6-.052-1.384,0-2.509.431-2.509.958s1.125.958,2.509.958c1.185,0,2.77-.013,4.592-.037m-4.341-2.981c1.639,0,4.052-.023,6.8-.068.486-.553,1.018-1.125,1.592-1.728-3.386-.055-6.435-.089-8.39-.089-1.357,0-2.464.42-2.464.94s1.107.945,2.464.945" transform="translate(-74.549 -3.316)" fill="#fff"></path>
        <path id="Path_2657" data-name="Path 2657" d="M102.118,25.988c.018.48.018.955-.008,1.415-4.644.185-9.043.467-9.043.775s4.3.59,8.886.775c-.081.522-.185,1.044-.305,1.553-4.521.191-8.719.462-8.719.765s3.921.559,8.249.744a14.368,14.368,0,0,1-.671,1.608c-3.73.183-6.806.418-6.806.679,0,.245,2.694.47,6.083.645-.193.305-.392.611-.6.9-.219.308-.454.619-.715.922-2.117.164-3.574.345-3.574.535s1.047.332,2.65.473a15.307,15.307,0,0,1-3.135,2.386,24.655,24.655,0,0,1-2.624-2.686c-1.052-1.29-3.3-4.686-3.824-5.448s-.88-.982-1.5-.76a8.22,8.22,0,0,1-2.081.441c-.3,0-.465-.117.034-.313a6.943,6.943,0,0,0,3.415-3.033c1.081-2.148.131-5.109.131-5.109a3.71,3.71,0,0,1-1.193,2.167,4.647,4.647,0,0,0-.749-3.738l-.4,1.864s-.264-.013-.89.517a2.581,2.581,0,0,0-.794,1.3c.491.2,1.081-.295,1.081-.295a23.789,23.789,0,0,1-2.637,6.367,4.492,4.492,0,0,1-2.242,2c-.671.269-.888-.044-.888-.044a12.254,12.254,0,0,1-1.48-1.519s-.037-.065.086-.06c.332.005.906-.553,1.039-.788.136-.264.128-.473.05-.486s-.2.206-.817.6c-.637.4-.924.123-1.125-.1-.164-.175-.008-.392.1-.53.094-.123,3.407-6.3,12.17-12.786,11.492-8.51,18.825-10.805,19.242-10.972.282-.11.734-.253.838-.149a.406.406,0,0,1,.157.355c-.018.136-.086.211-.619.441A99.87,99.87,0,0,0,96.4,14.473a58.843,58.843,0,0,0-7.153,4.315c-.277.17-.078.418.1.318,6.064-4.046,13.188-6.8,21.057-9.053.381-.107.585-.107.653-.023a.658.658,0,0,1,.1.313c.01.146-.1.225-.426.35q-12.687,4.711-18.7,8.753s-.418.253-.426.54c0,.107.227.125.227.125,2.01.031,4.694.151,5.968.23,0,0-.185.645-1.4,1.164a6.493,6.493,0,0,1-2.684.347.239.239,0,0,0-.2.4c.078.1,1.919,3.062,8.6,3.738" transform="translate(-70.713 -6.571)" fill="#fff"></path>
      </g>
    </g>
  </g>
</svg>