<svg class="ow-white" xmlns="http://www.w3.org/2000/svg" width="34" height="34" viewBox="0 0 34 34">
  <g id="Group_6896" data-name="Group 6896" transform="translate(-8.972 -6.901)">
    <path id="Path_2658" data-name="Path 2658" d="M25.971,6.9a17,17,0,1,0,17,17,17.018,17.018,0,0,0-17-17m0,33.125A16.126,16.126,0,1,1,42.1,23.9,16.125,16.125,0,0,1,25.971,40.026Z" transform="translate(0 0)" fill="#fff"></path>
    <path id="Path_2659" data-name="Path 2659" d="M11.2,15.456c0-.453.166-.994.709-.994s.716.541.716.994-.173.99-.716.99-.709-.536-.709-.99m-1.162,0a1.875,1.875,0,1,0,1.871-1.883A1.816,1.816,0,0,0,10.04,15.456Z" transform="translate(1.39 8.686)" fill="#fff"></path>
    <path id="Path_2660" data-name="Path 2660" d="M11.948,13.677h1.13v.488h.014a1.327,1.327,0,0,1,1.116-.592c1.181,0,1.277.861,1.277,1.376v2.281H14.323V15.509c0-.483.055-.976-.58-.976-.44,0-.633.368-.633.762v1.936H11.948V13.677" transform="translate(3.874 8.686)" fill="#fff"></path>
    <path id="Path_2661" data-name="Path 2661" d="M14.957,15.094a.772.772,0,0,1,.755-.737.728.728,0,0,1,.7.737h-1.45m2.61.651a1.9,1.9,0,1,0-3.775-.3,1.787,1.787,0,0,0,1.947,1.89A1.677,1.677,0,0,0,17.5,16.163H16.418a.7.7,0,0,1-.668.391.756.756,0,0,1-.794-.808Z" transform="translate(6.275 8.686)" fill="#fff"></path>
    <path id="Path_2662" data-name="Path 2662" d="M15.532,13.62H16l.915,3.064h.011L17.8,13.62h.492l.872,3.064h.013L20.1,13.62h.461L19.41,17.2h-.479l-.879-3.008h-.016L17.162,17.2h-.477L15.532,13.62" transform="translate(8.54 8.747)" fill="#fff"></path>
    <path id="Path_2663" data-name="Path 2663" d="M21.228,15.47a1.7,1.7,0,1,1-3.386,0,1.7,1.7,0,1,1,3.386,0m-2.949,0a1.279,1.279,0,1,0,2.511,0,1.28,1.28,0,1,0-2.511,0Z" transform="translate(11.547 8.686)" fill="#fff"></path>
    <path id="Path_2664" data-name="Path 2664" d="M19.595,13.648H20v.838h.014a1.322,1.322,0,0,1,1.351-.886v.433a1.238,1.238,0,0,0-1.328,1.284v1.908h-.44V13.648" transform="translate(13.829 8.719)" fill="#fff"></path>
    <rect id="Rectangle_2044" data-name="Rectangle 2044" width="0.436" height="4.951" transform="translate(35.685 20.993)" fill="#fff"></rect>
    <path id="Path_2665" data-name="Path 2665" d="M24.35,17.974h-.4v-.681h-.014a1.418,1.418,0,0,1-1.275.785c-1.089,0-1.611-.879-1.611-1.892s.523-1.9,1.611-1.9a1.269,1.269,0,0,1,1.238.785h.016V13.023h.435v4.951m-1.69-.265c.925,0,1.254-.785,1.254-1.524s-.329-1.528-1.254-1.528c-.829,0-1.169.785-1.169,1.528S21.832,17.709,22.66,17.709Z" transform="translate(15.722 7.97)" fill="#fff"></path>
  </g>
</svg>